<svg xmlns="http://www.w3.org/2000/svg" viewBox="0 0 512 512" width="512" height="512">
  <defs>
    <linearGradient id="grad1" x1="0%" y1="0%" x2="100%" y2="100%">
      <stop offset="0%" style="stop-color:#0891b2;stop-opacity:1" />
      <stop offset="100%" style="stop-color:#0369a1;stop-opacity:1" />
    </linearGradient>
  </defs>
  
  <!-- Background circle -->
  <circle cx="256" cy="256" r="240" fill="url(#grad1)" stroke="#ffffff" stroke-width="8"/>
  
  <!-- HR icon - people group -->
  <g fill="#ffffff">
    <!-- Person 1 -->
    <circle cx="200" cy="180" r="25"/>
    <path d="M200 210 C180 210, 160 220, 160 240 L160 280 L240 280 L240 240 C240 220, 220 210, 200 210 Z"/>
    
    <!-- Person 2 -->
    <circle cx="312" cy="180" r="25"/>
    <path d="M312 210 C292 210, 272 220, 272 240 L272 280 L352 280 L352 240 C352 220, 332 210, 312 210 Z"/>
    
    <!-- Document/clipboard -->
    <rect x="220" y="320" width="72" height="96" rx="8" fill="#ffffff" stroke="#0891b2" stroke-width="2"/>
    <rect x="235" y="335" width="42" height="4" fill="#0891b2"/>
    <rect x="235" y="350" width="42" height="4" fill="#0891b2"/>
    <rect x="235" y="365" width="30" height="4" fill="#0891b2"/>
    <rect x="235" y="380" width="36" height="4" fill="#0891b2"/>
  </g>
  
  <!-- Text "HR" -->
  <text x="256" y="140" font-family="Arial, sans-serif" font-size="36" font-weight="bold" text-anchor="middle" fill="#ffffff">HR</text>
</svg> 